<svg xmlns="http://www.w3.org/2000/svg" xmlns:xlink="http://www.w3.org/1999/xlink" version="1.1" x="0px" y="0px" viewBox="0 0 100 125" style="enable-background:new 0 0 100 100;" xml:space="preserve"><title>nounproject_2018_V04_nounproject</title><path d="M49.4,69.5c-4,0-7.9-1.2-11.2-3.5c-0.3-0.2-0.4-0.5-0.2-0.8c0.1-0.3,0.4-0.5,0.7-0.5h1c8.2,0.2,15-6.2,15.2-14.4  s-6.2-15-14.4-15.2c-0.3,0-0.5,0-0.8,0H39c-0.4,0-0.7-0.3-0.7-0.7c0-0.2,0.1-0.5,0.3-0.6c9-6,21-3.5,27,5.4s3.5,21-5.4,27  C56.9,68.4,53.2,69.5,49.4,69.5z M41,66.1c8.9,4.6,19.8,1.2,24.4-7.7c4.6-8.9,1.2-19.8-7.7-24.4c-5.1-2.6-11.1-2.7-16.3-0.2  c8.9,1,15.3,9,14.3,17.9C54.9,59.4,48.7,65.4,41,66.1z M49.4,27.6c0-0.4,0.2-0.5,0.5-0.8c1-0.8,1.2-2.3,0.4-3.3  c-0.1-0.1-0.2-0.3-0.4-0.4c-0.3-0.3-0.5-0.5-0.5-0.8s0.2-0.5,0.5-0.8c1-0.8,1.2-2.3,0.4-3.3c-0.1-0.1-0.2-0.3-0.4-0.4  c-0.3-0.3-0.5-0.5-0.5-0.8s0.2-0.5,0.5-0.8c0.5-0.5,0.9-1.1,0.9-1.8c0-0.4-0.3-0.7-0.7-0.7s-0.7,0.3-0.7,0.7l0,0  c0,0.4-0.1,0.5-0.5,0.8c-0.5,0.5-0.9,1.1-0.9,1.8c0,0.7,0.3,1.4,0.9,1.8c0.3,0.3,0.5,0.5,0.5,0.8s-0.1,0.5-0.5,0.8  c-0.6,0.4-0.9,1.1-0.9,1.8c0,0.7,0.3,1.4,0.9,1.8c0.3,0.3,0.5,0.5,0.5,0.8s-0.1,0.5-0.5,0.8c-0.5,0.4-0.9,1.1-0.9,1.8  c0,0.4,0.3,0.7,0.7,0.7S49.4,28,49.4,27.6L49.4,27.6z M53.2,27.8c0.1-0.4,0.2-0.5,0.6-0.8c1.1-0.6,1.5-2.1,0.9-3.2  c-0.1-0.1-0.2-0.3-0.3-0.4c-0.3-0.4-0.4-0.5-0.3-0.9s0.2-0.5,0.6-0.7c1.1-0.6,1.5-2.1,0.9-3.2c-0.1-0.1-0.2-0.3-0.3-0.4  c-0.3-0.4-0.4-0.5-0.3-0.9s0.2-0.5,0.6-0.8c0.6-0.3,1.1-1,1.2-1.7c0-0.4-0.2-0.7-0.6-0.8c-0.4,0-0.7,0.2-0.8,0.6  c-0.1,0.4-0.2,0.5-0.6,0.7c-0.6,0.4-1,1-1.2,1.7c-0.1,0.7,0.1,1.4,0.6,1.9c0.3,0.4,0.4,0.5,0.3,0.9s-0.2,0.5-0.6,0.7  c-1.1,0.6-1.5,2.1-0.9,3.2c0.1,0.1,0.2,0.3,0.3,0.4c0.3,0.4,0.4,0.5,0.3,0.9s-0.2,0.5-0.6,0.8c-0.6,0.4-1,1-1.2,1.6  c-0.1,0.4,0.2,0.7,0.6,0.8c0,0,0,0,0,0h0.1C52.9,28.4,53.1,28.1,53.2,27.8L53.2,27.8z M56.9,28.7c0.1-0.3,0.3-0.4,0.7-0.6  c1.2-0.4,1.9-1.8,1.4-3c-0.1-0.2-0.1-0.3-0.2-0.5c-0.2-0.4-0.3-0.6-0.2-1s0.3-0.4,0.7-0.6c0.7-0.2,1.2-0.8,1.4-1.4  c0.2-0.7,0.1-1.4-0.2-2c-0.2-0.4-0.3-0.6-0.2-1s0.3-0.4,0.7-0.6c0.7-0.2,1.2-0.8,1.4-1.4c0.1-0.4-0.1-0.8-0.4-0.9  c-0.4-0.1-0.8,0.1-0.9,0.4c0,0,0,0,0,0c-0.1,0.3-0.3,0.4-0.7,0.6c-0.7,0.2-1.2,0.8-1.4,1.4c-0.2,0.7-0.1,1.4,0.2,2  c0.2,0.4,0.3,0.6,0.2,0.9s-0.3,0.4-0.7,0.6c-1.2,0.4-1.9,1.7-1.4,3c0.1,0.2,0.1,0.3,0.2,0.5c0.2,0.4,0.3,0.6,0.2,0.9  s-0.3,0.4-0.7,0.6c-0.7,0.2-1.2,0.8-1.4,1.4c-0.1,0.4,0.1,0.8,0.4,0.9c0.1,0,0.2,0,0.2,0C56.5,29.1,56.8,28.9,56.9,28.7L56.9,28.7z   M60.4,30.1c0.2-0.3,0.4-0.4,0.8-0.5c0.7-0.1,1.3-0.6,1.7-1.2c0.3-0.6,0.4-1.3,0.1-2c-0.1-0.4-0.2-0.6,0-1s0.4-0.4,0.8-0.5  c0.7-0.1,1.3-0.6,1.7-1.2c0.3-0.6,0.4-1.3,0.1-2c-0.1-0.4-0.2-0.6,0-1s0.4-0.4,0.8-0.5c0.7-0.1,1.3-0.6,1.7-1.2  c0.2-0.3,0.1-0.8-0.3-0.9c0,0,0,0,0,0c-0.3-0.2-0.8-0.1-1,0.2c0,0,0,0,0,0.1c-0.2,0.3-0.4,0.4-0.8,0.5c-0.7,0.1-1.3,0.6-1.7,1.2  c-0.3,0.6-0.4,1.3-0.1,2c0.1,0.4,0.2,0.6,0,1s-0.4,0.4-0.8,0.5c-0.7,0.1-1.3,0.6-1.7,1.2c-0.3,0.6-0.4,1.3-0.1,2  c0.1,0.4,0.2,0.6,0,1s-0.4,0.4-0.8,0.5c-0.7,0.1-1.3,0.6-1.7,1.2c-0.2,0.3-0.1,0.8,0.3,1c0.1,0.1,0.2,0.1,0.3,0.1  C60,30.5,60.3,30.4,60.4,30.1L60.4,30.1z M63.6,32.1c0.2-0.3,0.4-0.3,0.9-0.4c1.3,0,2.3-1.1,2.3-2.4c0-0.1,0-0.3,0-0.4  c0-0.5-0.1-0.7,0.2-1s0.4-0.3,0.9-0.4c1.3,0,2.3-1,2.3-2.3c0-0.2,0-0.3-0.1-0.5c-0.1-0.5-0.1-0.7,0.2-0.9s0.4-0.3,0.9-0.4  c0.7,0,1.4-0.3,1.8-0.9c0.2-0.3,0.2-0.7-0.1-1c-0.3-0.2-0.7-0.2-1,0.1c-0.2,0.3-0.4,0.3-0.9,0.4c-1.3,0-2.4,1-2.4,2.3  c0,0.2,0,0.4,0.1,0.6c0,0.5,0.1,0.7-0.2,0.9s-0.4,0.3-0.9,0.4c-0.7,0-1.4,0.3-1.8,0.9c-0.4,0.6-0.6,1.3-0.5,2c0,0.5,0.1,0.7-0.2,1  s-0.4,0.3-0.9,0.4c-0.7,0-1.4,0.3-1.8,0.9c-0.3,0.3-0.2,0.7,0.1,1c0,0,0,0,0,0c0.1,0.1,0.3,0.1,0.4,0.2  C63.3,32.5,63.5,32.4,63.6,32.1L63.6,32.1z M66.4,34.7c0.3-0.2,0.5-0.2,0.9-0.2c1.3,0.2,2.5-0.6,2.7-1.9c0-0.2,0-0.3,0-0.5  c0-0.5,0-0.7,0.3-0.9s0.5-0.2,0.9-0.2c0.7,0.1,1.5-0.1,2-0.5c0.5-0.5,0.8-1.2,0.8-1.9c0-0.5,0-0.7,0.3-0.9s0.5-0.2,0.9-0.2  c0.7,0.1,1.5-0.1,2-0.5c0.3-0.3,0.3-0.7,0.1-1s-0.7-0.3-1-0.1C76.2,26,76,26,75.5,26c-1.3-0.2-2.5,0.6-2.7,1.9c0,0.2,0,0.4,0,0.5  c0,0.5,0,0.7-0.3,0.9s-0.5,0.2-0.9,0.2c-0.7-0.1-1.5,0.1-2,0.5c-0.5,0.5-0.8,1.2-0.8,1.9c0,0.5,0,0.7-0.3,0.9s-0.5,0.2-0.9,0.2  c-0.7-0.1-1.5,0.1-2,0.6c-0.3,0.3-0.3,0.7-0.1,1c0.1,0.1,0.3,0.2,0.5,0.2C66.1,34.9,66.3,34.8,66.4,34.7L66.4,34.7z M68.8,37.7  c0.3-0.2,0.7-0.2,1,0c0.7,0.2,1.4,0.1,2-0.2c0.6-0.4,1-1,1.1-1.7c0.1-0.5,0.2-0.7,0.5-0.8s0.5-0.2,1,0c1.2,0.4,2.6-0.2,3-1.4  c0.1-0.2,0.1-0.3,0.1-0.5c0.1-0.4,0.2-0.7,0.5-0.8s0.5-0.1,1,0c0.7,0.2,1.4,0.1,2-0.2c0.3-0.2,0.4-0.6,0.2-1c0,0,0,0,0,0  c-0.2-0.3-0.6-0.4-1-0.2c0,0,0,0,0,0c-0.3,0.2-0.5,0.1-1,0c-1.2-0.4-2.6,0.2-3,1.4c-0.1,0.2-0.1,0.3-0.1,0.5  c-0.1,0.4-0.2,0.6-0.5,0.8s-0.5,0.2-1,0c-0.7-0.2-1.4-0.1-2,0.2c-0.6,0.4-1,1-1.1,1.7c-0.1,0.5-0.2,0.7-0.5,0.8s-0.5,0.2-1,0  c-0.7-0.2-1.4-0.1-2,0.2c-0.3,0.2-0.5,0.6-0.3,1c0,0,0,0,0,0c0.1,0.2,0.4,0.3,0.6,0.3C68.5,37.8,68.6,37.8,68.8,37.7L68.8,37.7z   M73.5,41.3c0.7-0.3,1.1-0.8,1.4-1.5c0.2-0.4,0.3-0.6,0.6-0.8s0.5-0.1,1,0.1c1.1,0.6,2.6,0.2,3.2-0.9c0.1-0.1,0.1-0.3,0.2-0.4  c0.2-0.4,0.3-0.6,0.6-0.8s0.5-0.1,1,0.1c0.6,0.3,1.3,0.4,2,0.1c0.4-0.1,0.5-0.6,0.4-0.9c-0.2-0.4-0.6-0.5-0.9-0.4  c-0.3,0.1-0.5,0.1-1-0.1c-0.6-0.3-1.3-0.4-2-0.1c-0.7,0.3-1.2,0.8-1.4,1.5c-0.2,0.4-0.3,0.6-0.6,0.8S77.5,38,77,37.8  c-0.6-0.3-1.3-0.4-2-0.1c-0.7,0.3-1.2,0.8-1.4,1.5c-0.2,0.4-0.3,0.6-0.6,0.8s-0.5,0.1-1-0.1c-0.6-0.3-1.3-0.4-2-0.1  c-0.4,0.1-0.5,0.6-0.4,0.9c0.1,0.4,0.6,0.5,0.9,0.4l0,0c0.3-0.1,0.5-0.1,1,0.1c0.4,0.2,0.8,0.3,1.2,0.3  C73.1,41.4,73.3,41.4,73.5,41.3L73.5,41.3z M74.7,45.3c0.7-0.2,1.3-0.6,1.6-1.2c0.2-0.4,0.4-0.6,0.7-0.6s0.5,0,0.9,0.3  c1,0.8,2.5,0.7,3.3-0.3c0.1-0.1,0.2-0.3,0.3-0.4c0.2-0.4,0.4-0.6,0.7-0.6s0.5,0,0.9,0.3c0.6,0.5,1.3,0.6,2,0.5  c0.4-0.1,0.6-0.5,0.5-0.8c0,0,0,0,0,0c-0.1-0.4-0.4-0.6-0.8-0.5c0,0,0,0,0,0c-0.3,0.1-0.5,0-0.9-0.3c-0.6-0.4-1.3-0.6-2-0.5  c-0.7,0.2-1.3,0.6-1.6,1.3c-0.2,0.4-0.4,0.5-0.7,0.6s-0.5,0-0.9-0.3c-1-0.8-2.5-0.6-3.3,0.4c-0.1,0.1-0.2,0.3-0.3,0.4  c-0.2,0.4-0.4,0.6-0.7,0.6s-0.5,0-0.9-0.3c-0.6-0.4-1.3-0.6-2-0.5c-0.4,0.1-0.6,0.5-0.5,0.8c0.1,0.4,0.5,0.6,0.8,0.5l0,0  c0.4-0.1,0.5,0,0.9,0.3c0.4,0.3,0.9,0.5,1.5,0.5C74.3,45.4,74.5,45.4,74.7,45.3L74.7,45.3z M75.1,49.6c0.7,0,1.4-0.4,1.8-1  c0.3-0.3,0.4-0.5,0.8-0.5s0.5,0.1,0.9,0.4c0.5,0.5,1.2,0.8,1.9,0.8c0.7,0,1.4-0.4,1.8-1c0.3-0.3,0.4-0.5,0.8-0.5s0.5,0.1,0.9,0.4  c0.5,0.5,1.2,0.8,1.9,0.8c0.4,0,0.7-0.3,0.7-0.7c0,0,0,0,0,0c0-0.4-0.3-0.7-0.7-0.7c0,0,0,0,0,0c-0.4,0-0.5-0.1-0.9-0.4  c-0.5-0.5-1.2-0.7-1.8-0.7c-0.7,0.1-1.4,0.4-1.8,1c-0.3,0.3-0.5,0.5-0.8,0.5s-0.5-0.1-0.8-0.4c-0.5-0.5-1.2-0.8-1.9-0.8  c-0.7,0.1-1.4,0.4-1.8,1c-0.3,0.3-0.4,0.5-0.8,0.5s-0.5-0.1-0.9-0.4c-0.5-0.5-1.2-0.8-1.9-0.8c-0.4,0-0.7,0.3-0.7,0.7  s0.3,0.7,0.7,0.7c0.4,0,0.5,0.1,0.9,0.4c0.4,0.5,1.1,0.8,1.7,0.8L75.1,49.6z M86.2,54.5c0-0.4-0.2-0.7-0.6-0.8c0,0,0,0,0,0  c-0.3,0-0.5-0.2-0.8-0.6c-0.7-1.1-2.1-1.4-3.2-0.7c-0.1,0.1-0.3,0.2-0.4,0.3c-0.4,0.3-0.5,0.4-0.9,0.4s-0.5-0.2-0.8-0.6  c-0.7-1.1-2.1-1.4-3.2-0.8c-0.2,0.1-0.3,0.2-0.4,0.3c-0.3,0.3-0.5,0.4-0.9,0.4s-0.5-0.2-0.8-0.6c-0.4-0.6-1-1-1.7-1.1  c-0.4-0.1-0.8,0.1-0.8,0.5c-0.1,0.4,0.1,0.8,0.5,0.8c0.1,0,0.1,0,0.2,0c0.4,0,0.5,0.2,0.8,0.6c0.7,1.1,2.1,1.4,3.2,0.7  c0.1-0.1,0.3-0.2,0.4-0.3c0.4-0.3,0.5-0.4,0.9-0.4s0.5,0.2,0.8,0.6c0.7,1.1,2.1,1.4,3.2,0.7c0.1-0.1,0.3-0.2,0.4-0.3  c0.4-0.3,0.5-0.4,0.9-0.4s0.5,0.2,0.8,0.6c0.4,0.6,1,1,1.7,1.1h0.1C85.9,55.1,86.2,54.8,86.2,54.5L86.2,54.5z M84.9,60.5  c0.1-0.4-0.1-0.8-0.5-0.9c-0.3-0.1-0.4-0.3-0.7-0.7c-0.3-0.7-0.8-1.2-1.5-1.4c-0.7-0.2-1.4-0.1-2,0.3c-0.4,0.2-0.6,0.3-0.9,0.2  s-0.4-0.3-0.7-0.7c-0.3-0.7-0.8-1.2-1.5-1.4c-0.7-0.2-1.4-0.1-2,0.3c-0.4,0.2-0.6,0.3-0.9,0.2s-0.4-0.3-0.7-0.7  c-0.3-0.7-0.8-1.2-1.5-1.4c-0.4-0.1-0.8,0.1-0.9,0.4c-0.1,0.4,0.1,0.8,0.4,0.9c0,0,0,0,0.1,0c0.3,0.1,0.4,0.3,0.7,0.7  c0.5,1.2,1.9,1.7,3,1.3c0.2-0.1,0.3-0.2,0.5-0.3c0.4-0.2,0.6-0.3,0.9-0.2s0.4,0.3,0.7,0.7c0.3,0.7,0.8,1.2,1.5,1.5  c0.7,0.2,1.4,0.1,2-0.3c0.4-0.2,0.6-0.3,0.9-0.2s0.4,0.3,0.7,0.7c0.3,0.7,0.8,1.2,1.5,1.4h0.2C84.6,61,84.9,60.8,84.9,60.5  L84.9,60.5z M82.7,66.2c0.2-0.3,0-0.8-0.3-0.9c-0.3-0.2-0.4-0.3-0.6-0.8c-0.3-1.3-1.5-2.1-2.8-1.8c-0.2,0-0.3,0.1-0.5,0.2  c-0.4,0.1-0.6,0.2-1,0s-0.4-0.3-0.5-0.8c-0.3-1.3-1.5-2.1-2.8-1.8c-0.2,0-0.3,0.1-0.5,0.2c-0.4,0.1-0.6,0.2-1,0s-0.4-0.3-0.5-0.8  c-0.2-0.7-0.6-1.2-1.2-1.5c-0.3-0.2-0.8,0-0.9,0.3c0,0,0,0,0,0c-0.2,0.3,0,0.8,0.3,0.9c0,0,0,0,0,0c0.3,0.2,0.4,0.4,0.5,0.8  c0.3,1.3,1.5,2.1,2.8,1.8c0.2,0,0.3-0.1,0.5-0.2c0.4-0.2,0.6-0.2,1,0s0.4,0.4,0.5,0.8c0.3,1.3,1.6,2,2.8,1.7c0.1,0,0.3-0.1,0.4-0.2  c0.4-0.2,0.6-0.2,1,0s0.4,0.4,0.5,0.8c0.2,0.7,0.6,1.3,1.3,1.6c0.1,0,0.2,0.1,0.3,0.1C82.4,66.7,82.6,66.5,82.7,66.2z M79.5,71.5  c0.2-0.3,0.2-0.7-0.1-1c0,0,0,0,0,0c-0.3-0.2-0.3-0.4-0.4-0.9c0-1.3-1.1-2.3-2.4-2.2c-0.2,0-0.4,0-0.6,0.1c-0.4,0.1-0.7,0.1-0.9-0.1  s-0.3-0.4-0.4-0.9c-0.1-1.3-1.2-2.3-2.5-2.2c-0.2,0-0.4,0-0.5,0.1c-0.3,0.1-0.7,0.1-1-0.1c-0.3-0.2-0.3-0.4-0.4-0.9  c-0.1-0.7-0.4-1.4-1-1.8c-0.3-0.2-0.7-0.2-1,0.1c0,0,0,0,0,0c-0.2,0.3-0.2,0.7,0.1,1c0,0,0,0,0,0c0.3,0.2,0.3,0.4,0.4,0.9  c0.1,1.3,1.2,2.3,2.5,2.2c0.2,0,0.4,0,0.5-0.1c0.4-0.1,0.7-0.1,0.9,0.1s0.3,0.4,0.4,0.9c0.1,1.3,1.1,2.3,2.4,2.2  c0.2,0,0.4,0,0.6-0.1c0.4-0.1,0.7-0.1,1,0.1s0.3,0.4,0.4,0.9c0,0.7,0.4,1.4,1,1.8c0.1,0.1,0.3,0.1,0.4,0.1  C79.2,71.8,79.4,71.7,79.5,71.5z M75.5,76.2c0.3-0.3,0.3-0.7,0-1c0,0,0,0,0,0c-0.2-0.3-0.3-0.5-0.2-0.9c0.2-1.3-0.7-2.5-2-2.6  c-0.2,0-0.4,0-0.5,0c-0.5,0-0.7,0-0.9-0.3s-0.3-0.5-0.2-0.9c0.1-1.3-0.8-2.4-2.1-2.6c-0.2,0-0.3,0-0.5,0c-0.4,0-0.7,0-0.9-0.3  s-0.2-0.5-0.2-0.9c0.1-0.7-0.2-1.4-0.7-1.9c-0.3-0.3-0.7-0.3-1,0s-0.3,0.7,0,1c0.2,0.2,0.3,0.5,0.2,0.9c-0.1,0.7,0.1,1.4,0.6,1.9  c0.5,0.5,1.2,0.8,1.9,0.7c0.4,0,0.7,0,0.9,0.3s0.2,0.5,0.2,0.9c-0.1,0.7,0.2,1.4,0.7,1.9c0.5,0.5,1.2,0.8,1.9,0.7  c0.4,0,0.7,0,0.9,0.3s0.3,0.5,0.3,0.9c-0.1,0.7,0.2,1.4,0.7,1.9c0.1,0.1,0.3,0.2,0.5,0.2C75.2,76.4,75.3,76.3,75.5,76.2L75.5,76.2z   M70.7,80.1c0.3-0.2,0.4-0.6,0.2-1c0,0,0,0,0,0c-0.2-0.3-0.2-0.5-0.1-1c0.4-1.2-0.3-2.5-1.6-2.9c-0.2,0-0.3-0.1-0.5-0.1  c-0.4-0.1-0.7-0.1-0.9-0.4s-0.2-0.5-0.1-1c0.2-0.7,0.1-1.4-0.3-2c-0.4-0.6-1.1-0.9-1.8-1c-0.4-0.1-0.7-0.1-0.9-0.4  c-0.2-0.3-0.2-0.7-0.1-1c0.2-0.7,0.1-1.4-0.3-2c-0.2-0.3-0.6-0.4-1-0.2c0,0,0,0,0,0c-0.3,0.2-0.4,0.7-0.2,1c0,0,0,0,0,0  c0.2,0.3,0.2,0.5,0.1,0.9c-0.4,1.2,0.4,2.6,1.6,2.9c0.2,0,0.3,0.1,0.5,0.1c0.4,0.1,0.7,0.1,0.9,0.4c0.2,0.3,0.2,0.7,0.1,1  c-0.2,0.7-0.1,1.4,0.3,2c0.4,0.6,1.1,0.9,1.8,1c0.4,0.1,0.7,0.1,0.9,0.4s0.2,0.5,0.1,1c-0.2,0.7-0.1,1.4,0.3,2  c0.1,0.2,0.3,0.3,0.6,0.3C70.5,80.2,70.6,80.1,70.7,80.1L70.7,80.1z M65.4,83.1c0.4-0.2,0.5-0.6,0.3-0.9c0,0,0,0,0,0  c-0.2-0.3-0.1-0.5,0.1-0.9c0.3-0.6,0.3-1.4,0-2c-0.3-0.6-0.9-1.1-1.6-1.3c-0.4-0.2-0.6-0.2-0.8-0.6s-0.1-0.5,0.1-1  c0.6-1.2,0.1-2.6-1.1-3.1c-0.2-0.1-0.3-0.1-0.5-0.2c-0.4-0.2-0.6-0.2-0.8-0.6s-0.1-0.5,0.1-1c0.3-0.6,0.3-1.4,0-2  c-0.2-0.3-0.6-0.5-0.9-0.3c-0.3,0.2-0.5,0.6-0.3,0.9c0,0,0,0,0,0c0.2,0.3,0.1,0.5-0.1,0.9c-0.6,1.2-0.1,2.6,1.1,3.2  c0.1,0.1,0.3,0.1,0.5,0.2c0.4,0.2,0.6,0.2,0.8,0.6s0.1,0.5-0.1,1c-0.6,1.2-0.1,2.6,1.1,3.1c0.2,0.1,0.3,0.1,0.5,0.2  c0.4,0.2,0.6,0.2,0.8,0.6s0.1,0.5-0.1,1c-0.3,0.6-0.3,1.4,0,2c0.1,0.2,0.4,0.4,0.6,0.4C65.2,83.2,65.3,83.2,65.4,83.1L65.4,83.1z   M59.6,85.2c0.4-0.1,0.6-0.5,0.5-0.9c-0.1-0.3,0-0.5,0.2-0.9c0.8-1.1,0.5-2.5-0.5-3.3c-0.1-0.1-0.3-0.2-0.5-0.3  c-0.4-0.2-0.6-0.3-0.7-0.7s0-0.5,0.2-0.9c0.4-0.6,0.5-1.3,0.4-2c-0.2-0.7-0.7-1.2-1.3-1.5c-0.4-0.2-0.6-0.3-0.7-0.7s0-0.5,0.2-0.9  c0.4-0.6,0.5-1.3,0.4-2c-0.1-0.4-0.5-0.6-0.9-0.5c-0.4,0.1-0.6,0.5-0.5,0.8c0.1,0.3,0,0.5-0.2,0.9c-0.8,1.1-0.5,2.5,0.5,3.3  c0.1,0.1,0.3,0.2,0.5,0.3c0.4,0.2,0.6,0.3,0.7,0.7s0,0.5-0.2,0.9c-0.4,0.6-0.5,1.3-0.4,2c0.2,0.7,0.7,1.2,1.3,1.5  c0.4,0.2,0.6,0.3,0.7,0.7s0,0.5-0.2,0.9c-0.4,0.6-0.6,1.3-0.4,2c0.1,0.3,0.4,0.5,0.7,0.5C59.5,85.3,59.5,85.3,59.6,85.2L59.6,85.2z   M53.5,86.4c0.4,0,0.7-0.4,0.6-0.8c0-0.3,0.1-0.5,0.4-0.9c0.9-0.9,0.9-2.4,0-3.3c-0.1-0.1-0.2-0.2-0.4-0.3c-0.3-0.3-0.5-0.4-0.5-0.8  s0.1-0.5,0.4-0.9c0.9-0.9,0.9-2.4,0-3.3c-0.1-0.1-0.2-0.2-0.4-0.3c-0.3-0.3-0.5-0.4-0.5-0.8s0.1-0.5,0.4-0.9  c0.5-0.5,0.8-1.2,0.7-1.9c0-0.4-0.3-0.7-0.7-0.7c-0.4,0-0.7,0.3-0.7,0.7c0,0,0,0.1,0,0.1c0,0.4-0.1,0.5-0.4,0.9  c-0.9,0.9-1,2.4-0.1,3.3c0.1,0.1,0.3,0.2,0.4,0.3c0.3,0.3,0.5,0.4,0.5,0.8s-0.1,0.5-0.4,0.9c-0.9,0.9-1,2.4-0.1,3.3  c0.1,0.1,0.3,0.2,0.4,0.3c0.3,0.3,0.5,0.4,0.5,0.8s-0.1,0.5-0.4,0.9c-0.5,0.5-0.8,1.2-0.7,1.9C52.8,86.1,53.1,86.4,53.5,86.4  L53.5,86.4z M48.1,85.8c0-0.4,0.2-0.5,0.5-0.8c1.1-0.7,1.3-2.2,0.6-3.3c-0.1-0.1-0.2-0.3-0.3-0.4c-0.3-0.3-0.4-0.5-0.4-0.9  s0.2-0.5,0.5-0.8c0.6-0.4,0.9-1.1,1-1.8c0-0.7-0.2-1.4-0.8-1.9c-0.3-0.3-0.4-0.5-0.4-0.9s0.2-0.5,0.5-0.8c0.6-0.4,0.9-1.1,1-1.8  c0-0.4-0.3-0.7-0.7-0.8c-0.4,0-0.7,0.3-0.8,0.7c0,0.4-0.2,0.5-0.5,0.8c-0.6,0.4-0.9,1.1-1,1.8c0,0.7,0.2,1.4,0.8,1.9  c0.3,0.3,0.4,0.5,0.4,0.9s-0.2,0.5-0.5,0.8c-0.6,0.4-0.9,1.1-1,1.8c0,0.7,0.2,1.4,0.8,1.9c0.3,0.3,0.4,0.5,0.4,0.9s-0.2,0.5-0.5,0.8  c-0.6,0.4-0.9,1.1-1,1.8c0,0.4,0.3,0.7,0.6,0.7c0,0,0,0,0,0l0,0C47.8,86.4,48.1,86.2,48.1,85.8L48.1,85.8z M42.1,84.9  c0.1-0.3,0.3-0.5,0.7-0.7c1.2-0.5,1.7-1.9,1.1-3.1c-0.1-0.2-0.2-0.3-0.3-0.4c-0.2-0.4-0.3-0.6-0.2-0.9s0.3-0.5,0.7-0.7  c0.6-0.3,1.1-0.9,1.3-1.6c0.2-0.7,0-1.4-0.4-2c-0.2-0.4-0.3-0.6-0.2-0.9s0.3-0.5,0.7-0.7c0.6-0.3,1.1-0.9,1.3-1.6  c0.1-0.4-0.2-0.8-0.5-0.8s-0.8,0.2-0.8,0.5c-0.1,0.3-0.3,0.5-0.7,0.7c-0.6,0.3-1.1,0.9-1.3,1.6c-0.2,0.7,0,1.4,0.4,2  c0.2,0.4,0.3,0.6,0.2,0.9s-0.3,0.5-0.7,0.7c-0.6,0.3-1.1,0.9-1.3,1.6c-0.2,0.7,0,1.4,0.4,2c0.2,0.4,0.3,0.6,0.2,0.9  s-0.3,0.5-0.7,0.7c-0.6,0.3-1.1,0.9-1.3,1.6c-0.1,0.4,0.1,0.8,0.5,0.8h0.2C41.7,85.5,42,85.3,42.1,84.9L42.1,84.9z M36.4,83.1  c0.1-0.3,0.3-0.4,0.8-0.6c0.7-0.2,1.2-0.7,1.5-1.3c0.3-0.6,0.2-1.4-0.1-2c-0.2-0.4-0.2-0.6-0.1-1s0.3-0.4,0.8-0.6  c1.3-0.4,2-1.7,1.6-2.9c0-0.2-0.1-0.3-0.2-0.5c-0.2-0.4-0.2-0.6-0.1-1s0.3-0.4,0.8-0.6c0.7-0.2,1.2-0.7,1.5-1.3  c0.1-0.4,0-0.8-0.4-0.9c-0.4-0.1-0.8,0-0.9,0.4c-0.1,0.3-0.3,0.4-0.8,0.6c-1.2,0.3-2,1.6-1.7,2.8c0,0.2,0.1,0.3,0.2,0.5  c0.2,0.3,0.2,0.7,0.1,1c-0.1,0.3-0.3,0.4-0.8,0.6c-0.7,0.2-1.2,0.7-1.5,1.3c-0.3,0.6-0.2,1.4,0.1,2c0.2,0.4,0.2,0.6,0.1,1  s-0.3,0.4-0.8,0.6c-0.7,0.2-1.2,0.7-1.5,1.3c-0.2,0.4,0,0.8,0.4,0.9c0,0,0,0,0,0c0.1,0,0.2,0.1,0.3,0.1C36,83.5,36.2,83.4,36.4,83.1  L36.4,83.1z M31,80.3c0.2-0.3,0.4-0.3,0.9-0.4c1.3-0.1,2.2-1.3,2.1-2.5c0-0.2-0.1-0.4-0.1-0.5c-0.1-0.4-0.1-0.7,0.1-1  s0.4-0.4,0.8-0.4c1.3-0.1,2.2-1.3,2.1-2.6c0-0.2-0.1-0.3-0.1-0.5c-0.1-0.4-0.1-0.7,0.1-0.9s0.4-0.4,0.8-0.4c0.7-0.1,1.3-0.4,1.7-1  c0.2-0.3,0.1-0.8-0.2-1c-0.3-0.2-0.8-0.1-1,0.2c-0.2,0.3-0.4,0.4-0.8,0.4c-1.3,0.1-2.2,1.3-2.1,2.6c0,0.2,0.1,0.3,0.1,0.5  c0.1,0.4,0.1,0.7-0.1,1s-0.4,0.3-0.8,0.4c-0.7,0.1-1.3,0.5-1.7,1.1c-0.4,0.6-0.5,1.3-0.3,2c0.1,0.4,0.1,0.7-0.1,1s-0.4,0.4-0.9,0.4  c-0.7,0.1-1.3,0.4-1.7,1c-0.2,0.3-0.1,0.8,0.2,1c0,0,0,0,0,0c0.1,0.1,0.3,0.1,0.4,0.1C30.7,80.7,30.9,80.6,31,80.3z M26.2,76.7  c0.2-0.3,0.5-0.3,0.9-0.3c1.3,0.1,2.4-0.9,2.5-2.2c0-0.2,0-0.3,0-0.5c0-0.5,0-0.7,0.2-0.9s0.5-0.3,0.9-0.3c1.3,0.1,2.4-0.9,2.5-2.2  c0-0.2,0-0.3,0-0.5c0-0.5,0-0.7,0.2-0.9s0.5-0.3,0.9-0.3c0.7,0,1.4-0.2,1.9-0.7c0.3-0.3,0.3-0.7,0-1c-0.3-0.3-0.7-0.3-1,0  c0,0,0,0,0,0c-0.2,0.3-0.5,0.3-0.9,0.3c-0.7,0-1.4,0.2-1.9,0.8c-0.5,0.5-0.7,1.2-0.6,1.9c0,0.4,0,0.7-0.2,0.9s-0.5,0.3-0.9,0.3  c-1.3-0.1-2.4,0.9-2.5,2.2c0,0.2,0,0.3,0,0.5c0,0.5,0,0.7-0.2,0.9S27.5,75,27.1,75c-0.7,0-1.4,0.2-1.9,0.8c-0.3,0.3-0.3,0.7,0,1  c0.1,0.1,0.3,0.2,0.5,0.2C25.9,76.9,26,76.8,26.2,76.7L26.2,76.7z M22,72.3c0.3-0.2,0.5-0.2,0.9-0.1c0.7,0.2,1.4,0,2-0.4  c0.5-0.4,0.9-1.1,0.9-1.8c0.1-0.4,0.1-0.7,0.4-0.9s0.5-0.2,1-0.1c1.3,0.3,2.5-0.5,2.8-1.7c0-0.2,0.1-0.3,0.1-0.5  c0.1-0.4,0.1-0.7,0.4-0.9s0.5-0.2,1-0.1c0.7,0.2,1.4,0,2-0.4c0.3-0.2,0.4-0.7,0.1-1s-0.7-0.4-1-0.1c-0.3,0.2-0.5,0.2-0.9,0.1  c-0.7-0.2-1.4,0-2,0.4c-0.6,0.4-0.9,1.1-0.9,1.8c0,0.5-0.1,0.7-0.4,0.9s-0.5,0.2-0.9,0.1c-1.3-0.3-2.5,0.5-2.8,1.7  c0,0.2-0.1,0.3-0.1,0.5c-0.1,0.4-0.1,0.7-0.4,0.9c-0.3,0.2-0.6,0.2-1,0.1c-0.7-0.2-1.4,0-2,0.4c-0.3,0.2-0.4,0.7-0.1,1  c0.1,0.2,0.3,0.3,0.6,0.3C21.8,72.5,21.9,72.4,22,72.3z M21.6,67.2c0.6-0.3,1.1-0.9,1.2-1.6c0.1-0.4,0.2-0.6,0.5-0.8s0.5-0.1,1,0  c0.6,0.3,1.4,0.2,2-0.1c0.6-0.3,1.1-0.9,1.2-1.6c0.1-0.4,0.2-0.6,0.5-0.8s0.5-0.1,1,0c0.6,0.3,1.4,0.2,2-0.1c0.4-0.2,0.5-0.6,0.3-1  c0,0,0,0,0,0c-0.2-0.3-0.6-0.5-0.9-0.3c0,0,0,0,0,0c-0.3,0.2-0.5,0.1-1,0c-1.2-0.5-2.6,0-3.1,1.2c-0.1,0.2-0.1,0.3-0.2,0.5  c-0.1,0.4-0.2,0.6-0.5,0.8s-0.5,0.1-1,0c-1.2-0.5-2.6,0-3.1,1.2c-0.1,0.2-0.1,0.3-0.2,0.5c-0.1,0.4-0.2,0.6-0.5,0.8s-0.5,0.1-1,0  c-0.6-0.3-1.4-0.2-2,0.1c-0.3,0.2-0.5,0.6-0.3,0.9s0.6,0.5,0.9,0.3l0,0c0.3-0.2,0.5-0.1,1,0c0.3,0.1,0.7,0.2,1,0.2  C20.9,67.5,21.3,67.4,21.6,67.2L21.6,67.2z M19.1,62.2c0.7-0.2,1.2-0.7,1.5-1.4c0.2-0.4,0.3-0.6,0.6-0.7s0.5,0,0.9,0.2  c1.1,0.7,2.5,0.4,3.3-0.7c0.1-0.1,0.2-0.3,0.2-0.4c0.2-0.4,0.3-0.6,0.6-0.7s0.5,0,0.9,0.2c0.6,0.4,1.3,0.5,2,0.3  c0.4-0.1,0.6-0.5,0.5-0.9c-0.1-0.4-0.5-0.6-0.9-0.4c-0.3,0.1-0.5,0-0.9-0.2c-0.6-0.4-1.3-0.5-2-0.3c-0.7,0.2-1.2,0.7-1.5,1.4  c-0.2,0.4-0.3,0.6-0.6,0.7s-0.5,0-0.9-0.2c-0.6-0.4-1.3-0.5-2-0.3c-0.7,0.2-1.2,0.7-1.5,1.4c-0.2,0.4-0.3,0.6-0.6,0.7  s-0.5,0-0.9-0.2c-0.6-0.4-1.3-0.5-2-0.3c-0.4,0.1-0.5,0.5-0.4,0.9c0.1,0.3,0.5,0.5,0.8,0.4c0.3-0.1,0.5,0,0.9,0.2  c0.4,0.2,0.8,0.4,1.3,0.4C18.7,62.3,18.9,62.3,19.1,62.2L19.1,62.2z M17.5,56.9c0.7-0.1,1.3-0.5,1.7-1.1c0.3-0.4,0.4-0.5,0.8-0.6  s0.5,0.1,0.9,0.3c0.5,0.5,1.2,0.7,1.9,0.6c0.7-0.1,1.3-0.5,1.7-1.1c0.3-0.4,0.4-0.5,0.8-0.6s0.5,0.1,0.9,0.3  c0.5,0.5,1.2,0.7,1.9,0.6c0.4,0,0.7-0.4,0.6-0.8c0-0.4-0.4-0.7-0.8-0.6c0,0-0.1,0-0.1,0c-0.4,0-0.5-0.1-0.9-0.3  c-0.5-0.5-1.2-0.7-1.9-0.6c-0.7,0.1-1.3,0.5-1.7,1.1c-0.3,0.4-0.4,0.5-0.8,0.6s-0.5-0.1-0.9-0.3c-1-0.9-2.4-0.8-3.3,0.1  c-0.1,0.1-0.2,0.3-0.3,0.4c-0.3,0.4-0.4,0.5-0.8,0.6s-0.5-0.1-0.9-0.3c-0.5-0.5-1.2-0.7-1.9-0.6c-0.4,0.1-0.7,0.4-0.6,0.8  c0.1,0.4,0.4,0.7,0.8,0.6c0.4,0,0.5,0.1,0.9,0.3c0.4,0.4,1,0.6,1.6,0.6L17.5,56.9z M28.2,50.9c0-0.4-0.3-0.7-0.7-0.7c0,0,0,0,0,0  c-0.4,0-0.5-0.2-0.8-0.5c-0.8-1-2.3-1.2-3.3-0.4c-0.1,0.1-0.3,0.2-0.4,0.3c-0.3,0.3-0.5,0.5-0.8,0.5s-0.5-0.2-0.8-0.5  c-0.4-0.6-1.1-0.9-1.8-0.9c-0.7,0-1.4,0.3-1.9,0.8c-0.3,0.3-0.5,0.5-0.8,0.5s-0.5-0.2-0.8-0.5c-0.4-0.6-1.1-0.9-1.8-0.9  c-0.4,0-0.7,0.3-0.7,0.7c0,0.4,0.3,0.7,0.7,0.7c0,0,0,0,0,0c0.4,0,0.5,0.2,0.8,0.5c0.4,0.6,1.1,0.9,1.8,0.9c0.7,0,1.4-0.3,1.9-0.8  c0.3-0.3,0.5-0.5,0.9-0.5s0.5,0.2,0.8,0.5c0.4,0.6,1.1,0.9,1.8,0.9c0.7,0,1.4-0.3,1.9-0.8c0.3-0.3,0.5-0.5,0.8-0.4s0.5,0.2,0.8,0.5  c0.4,0.6,1.1,0.9,1.8,0.9l0,0C27.9,51.6,28.2,51.3,28.2,50.9C28.2,50.9,28.2,50.9,28.2,50.9L28.2,50.9z M28.4,47.2  c0.1-0.4-0.2-0.7-0.6-0.8c0,0,0,0,0,0c-0.4-0.1-0.5-0.2-0.7-0.6c-0.3-0.6-0.9-1.1-1.6-1.2c-0.7-0.1-1.4,0.1-2,0.5  c-0.4,0.2-0.6,0.4-0.9,0.3s-0.5-0.2-0.7-0.6c-0.6-1.1-2-1.6-3.2-1c-0.1,0.1-0.3,0.2-0.4,0.3c-0.4,0.2-0.6,0.4-0.9,0.3  s-0.5-0.2-0.7-0.6c-0.3-0.6-0.9-1.1-1.6-1.2c-0.4-0.1-0.8,0.1-0.9,0.5c-0.1,0.4,0.1,0.8,0.5,0.9c0,0,0.1,0,0.1,0  c0.4,0.1,0.5,0.2,0.7,0.6c0.6,1.1,2,1.6,3.2,1c0.1-0.1,0.3-0.2,0.4-0.3c0.4-0.3,0.6-0.4,0.9-0.3s0.5,0.2,0.7,0.6  c0.6,1.1,2,1.6,3.1,1c0.2-0.1,0.3-0.2,0.4-0.3c0.4-0.2,0.5-0.4,0.9-0.3s0.5,0.2,0.7,0.6c0.3,0.6,0.9,1.1,1.6,1.2h0.1  C28,47.7,28.3,47.5,28.4,47.2L28.4,47.2z M29.2,43.6c0.1-0.4,0-0.8-0.4-0.9c0,0,0,0,0,0c-0.3-0.1-0.4-0.3-0.6-0.7  c-0.2-0.7-0.7-1.2-1.4-1.5c-0.7-0.2-1.4-0.2-2,0.2c-0.4,0.2-0.6,0.3-0.9,0.1s-0.4-0.3-0.6-0.7c-0.2-0.7-0.7-1.2-1.4-1.5  c-0.7-0.2-1.4-0.2-2,0.2c-0.4,0.2-0.6,0.3-0.9,0.1s-0.4-0.3-0.6-0.7c-0.2-0.7-0.7-1.2-1.4-1.5c-0.4-0.1-0.8,0-0.9,0.4  c-0.1,0.4,0.1,0.8,0.4,0.9c0.3,0.1,0.4,0.3,0.6,0.7c0.4,1.2,1.8,1.8,3,1.4c0.1,0,0.3-0.1,0.4-0.2c0.4-0.2,0.6-0.3,1-0.1  s0.4,0.3,0.6,0.7c0.4,1.2,1.7,1.9,2.9,1.5c0.2-0.1,0.3-0.1,0.5-0.2c0.4-0.2,0.6-0.3,1-0.1s0.4,0.3,0.6,0.7c0.2,0.7,0.7,1.3,1.4,1.5  c0.1,0,0.2,0,0.2,0C28.9,44,29.1,43.9,29.2,43.6L29.2,43.6z M30.6,40.2c0.2-0.3,0.1-0.8-0.2-1c0,0,0,0,0,0C30,39,30,38.8,29.9,38.4  c-0.2-1.3-1.4-2.2-2.6-2c-0.2,0-0.4,0.1-0.5,0.1c-0.4,0.1-0.6,0.2-1,0s-0.4-0.4-0.5-0.8c-0.2-1.3-1.4-2.2-2.7-2  c-0.2,0-0.3,0.1-0.5,0.1c-0.4,0.1-0.6,0.2-1,0s-0.4-0.4-0.5-0.8c-0.1-0.7-0.5-1.3-1.1-1.7c-0.3-0.2-0.8-0.1-1,0.2s-0.1,0.8,0.2,1  l0,0c0.3,0.2,0.4,0.4,0.5,0.8c0.1,0.7,0.6,1.3,1.2,1.6c0.6,0.3,1.3,0.4,2,0.2c0.4-0.1,0.6-0.2,1,0s0.4,0.4,0.5,0.8  c0.2,1.3,1.4,2.2,2.7,2c0.2,0,0.3-0.1,0.5-0.1c0.4-0.1,0.6-0.2,1,0s0.4,0.4,0.5,0.8c0.1,0.7,0.5,1.3,1.1,1.7  c0.1,0.1,0.2,0.1,0.4,0.1C30.3,40.4,30.5,40.3,30.6,40.2L30.6,40.2z M32.5,37c0.3-0.3,0.2-0.7-0.1-1c0,0,0,0,0,0  c-0.3-0.2-0.3-0.4-0.3-0.9c0-0.7-0.3-1.4-0.8-1.8c-0.6-0.5-1.3-0.6-2-0.5c-0.3,0.1-0.7,0-0.9-0.2c-0.3-0.2-0.3-0.4-0.3-0.9  c0-0.7-0.3-1.4-0.8-1.9c-0.6-0.5-1.3-0.6-2-0.5c-0.5,0-0.7,0-0.9-0.2S24,28.8,24,28.3c0-0.7-0.3-1.4-0.8-1.9c-0.3-0.3-0.7-0.2-1,0.1  c0,0,0,0,0,0c-0.3,0.3-0.2,0.7,0.1,1c0,0,0,0,0,0c0.3,0.2,0.3,0.4,0.3,0.9c0,0.7,0.3,1.4,0.8,1.9c0.6,0.5,1.3,0.6,2,0.5  c0.5,0,0.7,0,0.9,0.2s0.3,0.4,0.3,0.9c0,0.7,0.3,1.4,0.8,1.8c0.6,0.5,1.3,0.7,2,0.5c0.5,0,0.7,0,0.9,0.2s0.3,0.4,0.3,0.9  c0,0.7,0.3,1.4,0.8,1.8c0.1,0.1,0.3,0.2,0.5,0.2C32.3,37.3,32.4,37.2,32.5,37z M35,34.3c0.3-0.2,0.3-0.7,0.1-1c0,0,0,0,0,0  c-0.2-0.3-0.2-0.5-0.2-0.9c0.3-1.3-0.6-2.5-1.8-2.7c-0.2,0-0.4-0.1-0.5,0c-0.5,0-0.7-0.1-0.9-0.3s-0.2-0.5-0.2-0.9  c0.1-0.7-0.1-1.4-0.5-2c-0.5-0.5-1.1-0.8-1.9-0.8c-0.5,0-0.7-0.1-0.9-0.3S28,24.6,28,24.2c0.1-0.7-0.1-1.4-0.5-2  c-0.3-0.3-0.7-0.3-1-0.1s-0.3,0.7-0.1,1l0,0c0.2,0.3,0.2,0.5,0.2,0.9c-0.3,1.3,0.5,2.5,1.8,2.8c0.2,0,0.4,0.1,0.6,0.1  c0.5,0,0.7,0.1,0.9,0.3s0.2,0.5,0.2,0.9c-0.3,1.3,0.5,2.5,1.8,2.8c0.2,0,0.3,0.1,0.5,0.1c0.5,0,0.7,0.1,0.9,0.3s0.2,0.5,0.2,0.9  c-0.1,0.7,0,1.4,0.5,2c0.1,0.2,0.3,0.2,0.5,0.2C34.7,34.5,34.9,34.4,35,34.3z M37.8,32c0.3-0.2,0.5-0.6,0.3-0.9c0,0,0,0,0-0.1  c-0.2-0.3-0.1-0.5,0-1c0.2-0.7,0.2-1.4-0.2-2c-0.4-0.6-1-1-1.7-1.1c-0.4-0.1-0.6-0.2-0.8-0.5s-0.1-0.5,0-1c0.2-0.7,0.2-1.4-0.2-2  c-0.4-0.6-1-1-1.7-1.1c-0.4-0.1-0.6-0.2-0.8-0.5s-0.1-0.5,0-1c0.2-0.7,0.2-1.4-0.2-2c-0.2-0.3-0.6-0.4-1-0.2s-0.4,0.6-0.2,1l0,0  c0.1,0.3,0.1,0.7,0,1c-0.2,0.7-0.2,1.4,0.2,2c0.4,0.6,1,1,1.7,1.1c0.4,0.1,0.6,0.2,0.8,0.5s0.1,0.5,0,1c-0.5,1.2,0.1,2.6,1.4,3  c0.2,0.1,0.3,0.1,0.5,0.1c0.4,0.1,0.6,0.2,0.8,0.5s0.1,0.5,0,1c-0.2,0.7-0.2,1.4,0.2,2c0.1,0.2,0.4,0.3,0.6,0.3  C37.6,32,37.7,32,37.8,32z M41.1,30.2c0.4-0.1,0.5-0.5,0.4-0.9c-0.1-0.3,0-0.5,0.1-0.9c0.3-0.6,0.4-1.3,0.2-2  c-0.3-0.7-0.8-1.2-1.5-1.4c-0.4-0.2-0.6-0.3-0.7-0.6s0-0.5,0.1-1c0.3-0.6,0.4-1.3,0.2-2c-0.3-0.7-0.8-1.2-1.5-1.4  c-0.4-0.2-0.6-0.3-0.7-0.6s0-0.5,0.1-1c0.3-0.6,0.4-1.3,0.2-2c-0.1-0.4-0.5-0.5-0.9-0.4c-0.4,0.1-0.5,0.5-0.4,0.9c0,0,0,0,0,0  c0.1,0.3,0,0.5-0.1,0.9c-0.7,1.1-0.3,2.5,0.8,3.2c0.2,0.1,0.3,0.2,0.5,0.2c0.4,0.2,0.6,0.3,0.7,0.6s0,0.5-0.1,1  c-0.7,1.1-0.3,2.5,0.8,3.2c0.2,0.1,0.3,0.2,0.5,0.2c0.4,0.2,0.6,0.3,0.7,0.6s0,0.5-0.1,1c-0.3,0.6-0.4,1.3-0.2,2  c0.1,0.3,0.4,0.4,0.7,0.5C40.9,30.3,41,30.3,41.1,30.2L41.1,30.2z M44.5,29c0.4-0.1,0.6-0.4,0.5-0.8c-0.1-0.4,0-0.5,0.3-0.9  c0.5-0.6,0.7-1.3,0.5-2c-0.1-0.7-0.6-1.3-1.2-1.6c-0.4-0.2-0.5-0.4-0.6-0.7s0-0.5,0.3-0.9c0.8-1,0.7-2.5-0.3-3.3  c-0.1-0.1-0.3-0.2-0.4-0.3c-0.4-0.2-0.5-0.4-0.6-0.7s0-0.5,0.3-0.9c0.5-0.6,0.7-1.3,0.5-2c-0.1-0.4-0.4-0.6-0.8-0.6  c-0.4,0.1-0.6,0.4-0.6,0.8c0,0,0,0,0,0c0.1,0.4,0,0.5-0.3,0.9c-0.5,0.6-0.6,1.3-0.5,2c0.1,0.7,0.6,1.3,1.2,1.6  c0.4,0.3,0.5,0.4,0.6,0.7s0,0.5-0.3,0.9c-0.8,1-0.7,2.5,0.3,3.3c0.1,0.1,0.3,0.2,0.4,0.3c0.4,0.2,0.5,0.4,0.6,0.7s0,0.5-0.3,0.9  c-0.5,0.6-0.6,1.3-0.5,2c0.1,0.3,0.3,0.6,0.7,0.6L44.5,29z"/><text x="0" y="115" fill="#000000" font-size="5px" font-weight="bold" font-family="'Helvetica Neue', Helvetica, Arial-Unicode, Arial, Sans-serif">Created by Trevor Davies</text><text x="0" y="120" fill="#000000" font-size="5px" font-weight="bold" font-family="'Helvetica Neue', Helvetica, Arial-Unicode, Arial, Sans-serif">from the Noun Project</text></svg>