<svg xmlns="http://www.w3.org/2000/svg" viewBox="0 0 72.44 26.7375" x="0px" y="0px"><g data-name="Layer 2"><g data-name="Layer 1"><path d="M10.68,18.68a8,8,0,1,1,8-8A8,8,0,0,1,10.68,18.68Zm0-15a7,7,0,1,0,7,7A7,7,0,0,0,10.68,3.67Z"/><path d="M10.68,15.76a5.09,5.09,0,1,1,5.08-5.08A5.09,5.09,0,0,1,10.68,15.76Zm0-9.17a4.09,4.09,0,1,0,4.08,4.09A4.09,4.09,0,0,0,10.68,6.59Z"/><rect x="9.95" y="20.39" width="62.49" height="1"/><path d="M10.68,21.35A10.68,10.68,0,1,1,21.35,10.68,10.69,10.69,0,0,1,10.68,21.35ZM10.68,1a9.68,9.68,0,1,0,9.67,9.68A9.69,9.69,0,0,0,10.68,1Z"/></g></g><text x="0" y="36.39" fill="#000000" font-size="5px" font-weight="bold" font-family="'Helvetica Neue', Helvetica, Arial-Unicode, Arial, Sans-serif">Created by Jaishree Garg</text><text x="0" y="41.39" fill="#000000" font-size="5px" font-weight="bold" font-family="'Helvetica Neue', Helvetica, Arial-Unicode, Arial, Sans-serif">from the Noun Project</text></svg>