<svg xmlns="http://www.w3.org/2000/svg" data-name="Layer 1" viewBox="0 0 79.49 99.39999999999999" x="0px" y="0px"><title>Untitled-50</title><circle cx="40.62" cy="2.06" r="2.06"/><circle cx="40.62" cy="77.46" r="2.06"/><circle cx="2.06" cy="38.9" r="2.06"/><circle cx="23.61" cy="21.8" r="2.06" transform="translate(-18.76 12.91) rotate(-45)"/><circle cx="23.61" cy="76.34" r="2.06" transform="translate(-57.32 28.89) rotate(-45)"/><path d="M49.4,78.45a.85.85,0,0,0-.77-.94A28.28,28.28,0,0,1,48.1,21.3a.85.85,0,0,0,.75-1,.85.85,0,0,0-1-.75,30,30,0,0,0,.56,59.62h.09A.85.85,0,0,0,49.4,78.45Z" transform="translate(-10.26 -10.17)"/><path d="M64.18,23.81A25.56,25.56,0,1,0,89.74,49.38,25.59,25.59,0,0,0,64.18,23.81Zm0,49.41A23.85,23.85,0,1,1,88,49.38,23.88,23.88,0,0,1,64.18,73.23Z" transform="translate(-10.26 -10.17)"/><path d="M70.91,35.07a7.58,7.58,0,1,0,7.58,7.58A7.59,7.59,0,0,0,70.91,35.07Zm0,13.45a5.87,5.87,0,1,1,5.87-5.87A5.88,5.88,0,0,1,70.91,48.52Z" transform="translate(-10.26 -10.17)"/><text x="0" y="94.52" fill="#000000" font-size="5px" font-weight="bold" font-family="'Helvetica Neue', Helvetica, Arial-Unicode, Arial, Sans-serif">Created by JohnnyZi</text><text x="0" y="99.52" fill="#000000" font-size="5px" font-weight="bold" font-family="'Helvetica Neue', Helvetica, Arial-Unicode, Arial, Sans-serif">from the Noun Project</text></svg>